<svg aria-roledescription="flowchart-v2" role="graphics-document document" viewBox="-8 -50 1689.287109375 1076.5" style="max-width: 1689.29px; background-color: transparent;" xmlns:xlink="http://www.w3.org/1999/xlink" xmlns="http://www.w3.org/2000/svg" width="100%" id="my-svg"><style>#my-svg{font-size:16px;fill:#fff;}#my-svg .error-icon{fill:hsl(18.6301369863, 88.6639676113%, 53.431372549%);}#my-svg .error-text{fill:rgb(13.4615384616, 158.6538461539, 224.0384615385);stroke:rgb(13.4615384616, 158.6538461539, 224.0384615385);}#my-svg .edge-thickness-normal{stroke-width:2px;}#my-svg .edge-thickness-thick{stroke-width:3.5px;}#my-svg .edge-pattern-solid{stroke-dasharray:0;}#my-svg .edge-pattern-dashed{stroke-dasharray:3;}#my-svg .edge-pattern-dotted{stroke-dasharray:2;}#my-svg .marker{fill:#64748b;stroke:#64748b;}#my-svg .marker.cross{stroke:#64748b;}#my-svg svg{font-size:16px;}#my-svg .label{color:#fff;}#my-svg .cluster-label text{fill:rgb(13.4615384616, 158.6538461539, 224.0384615385);}#my-svg .cluster-label span,#my-svg p{color:rgb(13.4615384616, 158.6538461539, 224.0384615385);}#my-svg .label text,#my-svg span,#my-svg p{fill:#fff;color:#fff;}#my-svg .node rect,#my-svg .node circle,#my-svg .node ellipse,#my-svg .node polygon,#my-svg .node path{fill:#0ea5e9;stroke:#0369a1;stroke-width:1px;}#my-svg .flowchart-label text{text-anchor:middle;}#my-svg .node .katex path{fill:#000;stroke:#000;stroke-width:1px;}#my-svg .node .label{text-align:center;}#my-svg .node.clickable{cursor:pointer;}#my-svg .arrowheadPath{fill:#0b0b0b;}#my-svg .edgePath .path{stroke:#64748b;stroke-width:2.0px;}#my-svg .flowchart-link{stroke:#64748b;fill:none;}#my-svg .edgeLabel{background-color:hsl(78.6301369863, 88.6639676113%, 48.431372549%);text-align:center;}#my-svg .edgeLabel rect{opacity:0.5;background-color:hsl(78.6301369863, 88.6639676113%, 48.431372549%);fill:hsl(78.6301369863, 88.6639676113%, 48.431372549%);}#my-svg .labelBkg{background-color:rgba(164.9999999999, 232.9999999999, 14, 0.5);}#my-svg .cluster rect{fill:hsl(18.6301369863, 88.6639676113%, 53.431372549%);stroke:hsl(18.6301369863, 48.6639676113%, 43.431372549%);stroke-width:1px;}#my-svg .cluster text{fill:rgb(13.4615384616, 158.6538461539, 224.0384615385);}#my-svg .cluster span,#my-svg p{color:rgb(13.4615384616, 158.6538461539, 224.0384615385);}#my-svg div.mermaidTooltip{position:absolute;text-align:center;max-width:200px;padding:2px;font-size:12px;background:hsl(18.6301369863, 88.6639676113%, 53.431372549%);border:1px solid hsl(18.6301369863, 48.6639676113%, 43.431372549%);border-radius:2px;pointer-events:none;z-index:100;}#my-svg .flowchartTitleText{text-anchor:middle;font-size:18px;fill:#fff;}#my-svg :root{--mermaid-font-family:"trebuchet ms",verdana,arial,sans-serif;}#my-svg .source&gt;*{fill:#fef3c7!important;stroke:#d97706!important;color:#92400e!important;}#my-svg .source span{fill:#fef3c7!important;stroke:#d97706!important;color:#92400e!important;}#my-svg .source tspan{fill:#92400e!important;}#my-svg .resolve&gt;*{fill:#dbeafe!important;stroke:#1d4ed8!important;color:#1e3a8a!important;}#my-svg .resolve span{fill:#dbeafe!important;stroke:#1d4ed8!important;color:#1e3a8a!important;}#my-svg .resolve tspan{fill:#1e3a8a!important;}#my-svg .lifecycle&gt;*{fill:#dcfce7!important;stroke:#15803d!important;color:#14532d!important;}#my-svg .lifecycle span{fill:#dcfce7!important;stroke:#15803d!important;color:#14532d!important;}#my-svg .lifecycle tspan{fill:#14532d!important;}#my-svg .storage&gt;*{fill:#f3e8ff!important;stroke:#6b21a8!important;color:#581c87!important;}#my-svg .storage span{fill:#f3e8ff!important;stroke:#6b21a8!important;color:#581c87!important;}#my-svg .storage tspan{fill:#581c87!important;}#my-svg .ai&gt;*{fill:#fce7f3!important;stroke:#be185d!important;color:#831843!important;}#my-svg .ai span{fill:#fce7f3!important;stroke:#be185d!important;color:#831843!important;}#my-svg .ai tspan{fill:#831843!important;}#my-svg .ui&gt;*{fill:#f1f5f9!important;stroke:#334155!important;color:#0f172a!important;}#my-svg .ui span{fill:#f1f5f9!important;stroke:#334155!important;color:#0f172a!important;}#my-svg .ui tspan{fill:#0f172a!important;}</style><g><marker orient="auto" markerHeight="12" markerWidth="12" markerUnits="userSpaceOnUse" refY="5" refX="6" viewBox="0 0 10 10" class="marker flowchart" id="my-svg_flowchart-pointEnd"><path style="stroke-width: 1; stroke-dasharray: 1, 0;" class="arrowMarkerPath" d="M 0 0 L 10 5 L 0 10 z"/></marker><marker orient="auto" markerHeight="12" markerWidth="12" markerUnits="userSpaceOnUse" refY="5" refX="4.5" viewBox="0 0 10 10" class="marker flowchart" id="my-svg_flowchart-pointStart"><path style="stroke-width: 1; stroke-dasharray: 1, 0;" class="arrowMarkerPath" d="M 0 5 L 10 10 L 10 0 z"/></marker><marker orient="auto" markerHeight="11" markerWidth="11" markerUnits="userSpaceOnUse" refY="5" refX="11" viewBox="0 0 10 10" class="marker flowchart" id="my-svg_flowchart-circleEnd"><circle style="stroke-width: 1; stroke-dasharray: 1, 0;" class="arrowMarkerPath" r="5" cy="5" cx="5"/></marker><marker orient="auto" markerHeight="11" markerWidth="11" markerUnits="userSpaceOnUse" refY="5" refX="-1" viewBox="0 0 10 10" class="marker flowchart" id="my-svg_flowchart-circleStart"><circle style="stroke-width: 1; stroke-dasharray: 1, 0;" class="arrowMarkerPath" r="5" cy="5" cx="5"/></marker><marker orient="auto" markerHeight="11" markerWidth="11" markerUnits="userSpaceOnUse" refY="5.2" refX="12" viewBox="0 0 11 11" class="marker cross flowchart" id="my-svg_flowchart-crossEnd"><path style="stroke-width: 2; stroke-dasharray: 1, 0;" class="arrowMarkerPath" d="M 1,1 l 9,9 M 10,1 l -9,9"/></marker><marker orient="auto" markerHeight="11" markerWidth="11" markerUnits="userSpaceOnUse" refY="5.2" refX="-1" viewBox="0 0 11 11" class="marker cross flowchart" id="my-svg_flowchart-crossStart"><path style="stroke-width: 2; stroke-dasharray: 1, 0;" class="arrowMarkerPath" d="M 1,1 l 9,9 M 10,1 l -9,9"/></marker><g class="root"><g class="clusters"><g id="UI" class="cluster default flowchart-label"><rect height="102" width="1478.310546875" y="916.5" x="23.9453125" ry="0" rx="0" style=""/><g transform="translate(673.1044921875, 916.5)" class="cluster-label"><foreignObject height="18.5" width="179.9921875"><div style="display: inline-block; white-space: nowrap;" xmlns="http://www.w3.org/1999/xhtml"><span class="nodeLabel">FRONTEND (React + Vite)</span></div></foreignObject></g></g><g id="AI" class="cluster default flowchart-label"><rect height="120.5" width="876.2578125" y="746" x="0" ry="0" rx="0" style=""/><g transform="translate(299.8828125, 746)" class="cluster-label"><foreignObject height="18.5" width="276.4921875"><div style="display: inline-block; white-space: nowrap;" xmlns="http://www.w3.org/1999/xhtml"><span class="nodeLabel">AZURE GPT-4.1 NARRATION (grounded)</span></div></foreignObject></g></g><g id="Storage" class="cluster default flowchart-label"><rect height="266" width="686.33203125" y="600.5" x="896.2578125" ry="0" rx="0" style=""/><g transform="translate(1197.783203125, 600.5)" class="cluster-label"><foreignObject height="18.5" width="83.28125"><div style="display: inline-block; white-space: nowrap;" xmlns="http://www.w3.org/1999/xhtml"><span class="nodeLabel">UBID STORE</span></div></foreignObject></g></g><g id="Lifecycle" class="cluster default flowchart-label"><rect height="380" width="331.0703125" y="170.5" x="1342.216796875" ry="0" rx="0" style=""/><g transform="translate(1399.384765625, 170.5)" class="cluster-label"><foreignObject height="18.5" width="216.734375"><div style="display: inline-block; white-space: nowrap;" xmlns="http://www.w3.org/1999/xhtml"><span class="nodeLabel">LIFECYCLE INFERENCE (Part B)</span></div></foreignObject></g></g><g id="Resolve" class="cluster default flowchart-label"><rect height="380" width="634.6953125" y="170.5" x="687.521484375" ry="0" rx="0" style=""/><g transform="translate(902.806640625, 170.5)" class="cluster-label"><foreignObject height="18.5" width="204.125"><div style="display: inline-block; white-space: nowrap;" xmlns="http://www.w3.org/1999/xhtml"><span class="nodeLabel">ENTITY RESOLUTION (Part A)</span></div></foreignObject></g></g><g id="Sources" class="cluster default flowchart-label"><rect height="102" width="822.046875" y="0" x="651.486328125" ry="0" rx="0" style=""/><g transform="translate(921.380859375, 0)" class="cluster-label"><foreignObject height="18.5" width="282.2578125"><div style="display: inline-block; white-space: nowrap;" xmlns="http://www.w3.org/1999/xhtml"><span class="nodeLabel">SOURCE SYSTEMS (40+ siloed registries)</span></div></foreignObject></g></g></g><g class="edgePaths"><path marker-end="url(#my-svg_flowchart-pointEnd)" style="fill:none;" class="edge-thickness-normal edge-pattern-solid flowchart-link LS-GST LE-BLOCK" id="L-GST-BLOCK-0" d="M741.389,77L741.389,81.167C741.389,85.333,741.389,93.667,741.389,103.542C741.389,113.417,741.389,124.833,741.389,136.25C741.389,147.667,741.389,159.083,763.243,170.285C785.097,181.486,828.805,192.472,850.659,197.965L872.514,203.458"/><path marker-end="url(#my-svg_flowchart-pointEnd)" style="fill:none;" class="edge-thickness-normal edge-pattern-solid flowchart-link LS-MCA LE-BLOCK" id="L-MCA-BLOCK-0" d="M901.193,77L901.193,81.167C901.193,85.333,901.193,93.667,901.193,103.542C901.193,113.417,901.193,124.833,901.193,136.25C901.193,147.667,901.193,159.083,908.058,169.968C914.923,180.853,928.653,191.206,935.518,196.383L942.383,201.559"/><path marker-end="url(#my-svg_flowchart-pointEnd)" style="fill:none;" class="edge-thickness-normal edge-pattern-solid flowchart-link LS-UDYAM LE-BLOCK" id="L-UDYAM-BLOCK-0" d="M1060.998,77L1060.998,81.167C1060.998,85.333,1060.998,93.667,1060.998,103.542C1060.998,113.417,1060.998,124.833,1060.998,136.25C1060.998,147.667,1060.998,159.083,1054.133,169.968C1047.268,180.853,1033.538,191.206,1026.673,196.383L1019.808,201.559"/><path marker-end="url(#my-svg_flowchart-pointEnd)" style="fill:none;stroke-width:2px;stroke-dasharray:3;" class="edge-thickness-normal edge-pattern-dotted flowchart-link LS-OTHERS LE-BLOCK" id="L-OTHERS-BLOCK-0" d="M1302.217,77L1302.217,81.167C1302.217,85.333,1302.217,93.667,1302.217,103.542C1302.217,113.417,1302.217,124.833,1302.217,136.25C1302.217,147.667,1302.217,159.083,1267.022,171.395C1231.828,183.707,1161.44,196.913,1126.245,203.516L1091.051,210.12"/><path marker-end="url(#my-svg_flowchart-pointEnd)" style="fill:none;" class="edge-thickness-normal edge-pattern-solid flowchart-link LS-BLOCK LE-DETERM" id="L-BLOCK-DETERM-0" d="M928.096,256.75L916.46,262.458C904.824,268.167,881.552,279.583,869.915,288.575C858.279,297.567,858.279,304.133,858.279,307.417L858.279,310.7"/><path marker-end="url(#my-svg_flowchart-pointEnd)" style="fill:none;" class="edge-thickness-normal edge-pattern-solid flowchart-link LS-BLOCK LE-PROB" id="L-BLOCK-PROB-0" d="M1045.201,256.75L1059.275,262.458C1073.349,268.167,1101.498,279.583,1115.572,288.575C1129.646,297.567,1129.646,304.133,1129.646,307.417L1129.646,310.7"/><path marker-end="url(#my-svg_flowchart-pointEnd)" style="fill:none;" class="edge-thickness-normal edge-pattern-solid flowchart-link LS-DETERM LE-TIER" id="L-DETERM-TIER-0" d="M858.279,386.5L858.279,390.667C858.279,394.833,858.279,403.167,864.874,411.065C871.468,418.963,884.657,426.427,891.251,430.158L897.845,433.89"/><path marker-end="url(#my-svg_flowchart-pointEnd)" style="fill:none;" class="edge-thickness-normal edge-pattern-solid flowchart-link LS-PROB LE-TIER" id="L-PROB-TIER-0" d="M1129.646,386.5L1129.646,390.667C1129.646,394.833,1129.646,403.167,1121.541,411.126C1113.435,419.085,1097.223,426.669,1089.117,430.462L1081.012,434.254"/><path marker-end="url(#my-svg_flowchart-pointEnd)" style="fill:none;" class="edge-thickness-normal edge-pattern-solid flowchart-link LS-TIER LE-UBID" id="L-TIER-UBID-0" d="M981.096,525.5L981.096,529.667C981.096,533.833,981.096,542.167,981.096,550.5C981.096,558.833,981.096,567.167,981.096,575.5C981.096,583.833,981.096,592.167,984.082,599.828C987.068,607.49,993.04,614.48,996.026,617.975L999.012,621.47"/><path marker-end="url(#my-svg_flowchart-pointEnd)" style="fill:none;" class="edge-thickness-normal edge-pattern-solid flowchart-link LS-EVENTS LE-RULES" id="L-EVENTS-RULES-0" d="M1507.752,266L1507.752,270.167C1507.752,274.333,1507.752,282.667,1507.752,290.117C1507.752,297.567,1507.752,304.133,1507.752,307.417L1507.752,310.7"/><path marker-end="url(#my-svg_flowchart-pointEnd)" style="fill:none;" class="edge-thickness-normal edge-pattern-solid flowchart-link LS-RULES LE-CONFLICT" id="L-RULES-CONFLICT-0" d="M1507.752,386.5L1507.752,390.667C1507.752,394.833,1507.752,403.167,1507.752,413.7C1507.752,424.233,1507.752,436.967,1507.752,443.333L1507.752,449.7"/><path marker-end="url(#my-svg_flowchart-pointEnd)" style="fill:none;" class="edge-thickness-normal edge-pattern-solid flowchart-link LS-CONFLICT LE-UBID" id="L-CONFLICT-UBID-0" d="M1507.752,507L1507.752,514.25C1507.752,521.5,1507.752,536,1507.752,547.417C1507.752,558.833,1507.752,567.167,1507.752,575.5C1507.752,583.833,1507.752,592.167,1445.211,604.263C1382.67,616.36,1257.588,632.219,1195.047,640.149L1132.506,648.079"/><path marker-end="url(#my-svg_flowchart-pointEnd)" style="fill:none;" class="edge-thickness-normal edge-pattern-solid flowchart-link LS-UBID LE-AUDIT" id="L-UBID-AUDIT-0" d="M1041.97,696L1043.081,700.167C1044.191,704.333,1046.413,712.667,1047.524,721C1048.635,729.333,1048.635,737.667,1048.635,745.117C1048.635,752.567,1048.635,759.133,1048.635,762.417L1048.635,765.7"/><path marker-end="url(#my-svg_flowchart-pointEnd)" style="fill:none;" class="edge-thickness-normal edge-pattern-solid flowchart-link LS-UBID LE-AI_LINK" id="L-UBID-AI_LINK-0" d="M994.638,696L990.154,700.167C985.67,704.333,976.702,712.667,972.218,721C967.734,729.333,967.734,737.667,873.417,750.553C779.1,763.44,590.466,780.88,496.149,789.6L401.832,798.321"/><path marker-end="url(#my-svg_flowchart-pointEnd)" style="fill:none;" class="edge-thickness-normal edge-pattern-solid flowchart-link LS-UBID LE-AI_LIFE" id="L-UBID-AI_LIFE-0" d="M1006.339,696L1003.238,700.167C1000.138,704.333,993.936,712.667,990.835,721C987.734,729.333,987.734,737.667,924.092,750.095C860.45,762.523,733.165,779.045,669.523,787.307L605.881,795.568"/><path marker-end="url(#my-svg_flowchart-pointEnd)" style="fill:none;" class="edge-thickness-normal edge-pattern-solid flowchart-link LS-UBID LE-AI_QUERY" id="L-UBID-AI_QUERY-0" d="M1018.041,696L1016.323,700.167C1014.605,704.333,1011.17,712.667,1009.452,721C1007.734,729.333,1007.734,737.667,980.849,748.021C953.964,758.375,900.193,770.75,873.308,776.937L846.423,783.125"/><path marker-end="url(#my-svg_flowchart-pointEnd)" style="fill:none;" class="edge-thickness-normal edge-pattern-solid flowchart-link LS-UBID LE-AI_BRIEF" id="L-UBID-AI_BRIEF-0" d="M982.937,696L977.07,700.167C971.203,704.333,959.469,712.667,953.601,721C947.734,729.333,947.734,737.667,821.589,750.909C695.444,764.151,443.154,782.302,317.009,791.378L190.864,800.453"/><path marker-end="url(#my-svg_flowchart-pointEnd)" style="fill:none;" class="edge-thickness-normal edge-pattern-solid flowchart-link LS-AI_LINK LE-RES" id="L-AI_LINK-RES-0" d="M316.066,832.25L316.066,837.958C316.066,843.667,316.066,855.083,316.066,864.958C316.066,874.833,316.066,883.167,316.066,891.5C316.066,899.833,316.066,908.167,316.713,915.633C317.36,923.1,318.655,929.699,319.302,932.999L319.949,936.299"/><path marker-end="url(#my-svg_flowchart-pointEnd)" style="fill:none;" class="edge-thickness-normal edge-pattern-solid flowchart-link LS-AI_LIFE LE-ENT" id="L-AI_LIFE-ENT-0" d="M523.59,832.25L523.59,837.958C523.59,843.667,523.59,855.083,566.498,864.958C609.406,874.833,695.223,883.167,738.131,891.5C781.039,899.833,781.039,908.167,792.594,917.671C804.149,927.176,827.259,937.852,838.814,943.189L850.369,948.527"/><path marker-end="url(#my-svg_flowchart-pointEnd)" style="fill:none;" class="edge-thickness-normal edge-pattern-solid flowchart-link LS-AI_QUERY LE-INS" id="L-AI_QUERY-INS-0" d="M745.941,832.25L745.941,837.958C745.941,843.667,745.941,855.083,788.72,864.958C831.499,874.833,917.057,883.167,959.836,891.5C1002.615,899.833,1002.615,908.167,1059.861,919.512C1117.107,930.858,1231.599,945.215,1288.845,952.394L1346.091,959.573"/><path marker-end="url(#my-svg_flowchart-pointEnd)" style="fill:none;" class="edge-thickness-normal edge-pattern-solid flowchart-link LS-AI_BRIEF LE-DASH" id="L-AI_BRIEF-DASH-0" d="M110.289,832.25L110.289,837.958C110.289,843.667,110.289,855.083,110.289,864.958C110.289,874.833,110.289,883.167,110.289,891.5C110.289,899.833,110.289,908.167,110.289,917.158C110.289,926.15,110.289,935.8,110.289,940.625L110.289,945.45"/><path marker-end="url(#my-svg_flowchart-pointEnd)" style="fill:none;" class="edge-thickness-normal edge-pattern-solid flowchart-link LS-UBID LE-RES" id="L-UBID-RES-0" d="M1124.932,696L1135.849,700.167C1146.767,704.333,1168.601,712.667,1179.518,721C1190.436,729.333,1190.436,737.667,1190.436,751.875C1190.436,766.083,1190.436,786.167,1190.436,806.25C1190.436,826.333,1190.436,846.417,1118.869,860.625C1047.303,874.833,904.171,883.167,832.605,891.5C761.039,899.833,761.039,908.167,700.95,919.379C640.86,930.591,520.681,944.682,460.592,951.727L400.502,958.772"/><path marker-end="url(#my-svg_flowchart-pointEnd)" style="fill:none;" class="edge-thickness-normal edge-pattern-solid flowchart-link LS-UBID LE-ENT" id="L-UBID-ENT-0" d="M1127.248,690.624L1143.292,695.687C1159.336,700.75,1191.424,710.875,1207.468,720.104C1223.512,729.333,1223.512,737.667,1223.512,751.875C1223.512,766.083,1223.512,786.167,1223.512,806.25C1223.512,826.333,1223.512,846.417,1183.362,860.625C1143.213,874.833,1062.914,883.167,1022.765,891.5C982.615,899.833,982.615,908.167,973.181,917.61C963.747,927.054,944.878,937.608,935.444,942.886L926.01,948.163"/><path marker-end="url(#my-svg_flowchart-pointEnd)" style="fill:none;" class="edge-thickness-normal edge-pattern-solid flowchart-link LS-UBID LE-INS" id="L-UBID-INS-0" d="M1127.248,675.891L1174.257,683.409C1221.266,690.928,1315.285,705.964,1362.294,717.649C1409.303,729.333,1409.303,737.667,1409.303,751.875C1409.303,766.083,1409.303,786.167,1409.303,806.25C1409.303,826.333,1409.303,846.417,1409.303,860.625C1409.303,874.833,1409.303,883.167,1409.303,891.5C1409.303,899.833,1409.303,908.167,1409.303,915.617C1409.303,923.067,1409.303,929.633,1409.303,932.917L1409.303,936.2"/></g><g class="edgeLabels"><g class="edgeLabel"><g transform="translate(0, 0)" class="label"><foreignObject height="0" width="0"><div style="display: inline-block; white-space: nowrap;" xmlns="http://www.w3.org/1999/xhtml"><span class="edgeLabel"></span></div></foreignObject></g></g><g class="edgeLabel"><g transform="translate(0, 0)" class="label"><foreignObject height="0" width="0"><div style="display: inline-block; white-space: nowrap;" xmlns="http://www.w3.org/1999/xhtml"><span class="edgeLabel"></span></div></foreignObject></g></g><g class="edgeLabel"><g transform="translate(0, 0)" class="label"><foreignObject height="0" width="0"><div style="display: inline-block; white-space: nowrap;" xmlns="http://www.w3.org/1999/xhtml"><span class="edgeLabel"></span></div></foreignObject></g></g><g transform="translate(1302.216796875, 136.25)" class="edgeLabel"><g transform="translate(-22.34375, -9.25)" class="label"><foreignObject height="18.5" width="44.6875"><div style="display: inline-block; white-space: nowrap;" xmlns="http://www.w3.org/1999/xhtml"><span class="edgeLabel">future</span></div></foreignObject></g></g><g class="edgeLabel"><g transform="translate(0, 0)" class="label"><foreignObject height="0" width="0"><div style="display: inline-block; white-space: nowrap;" xmlns="http://www.w3.org/1999/xhtml"><span class="edgeLabel"></span></div></foreignObject></g></g><g class="edgeLabel"><g transform="translate(0, 0)" class="label"><foreignObject height="0" width="0"><div style="display: inline-block; white-space: nowrap;" xmlns="http://www.w3.org/1999/xhtml"><span class="edgeLabel"></span></div></foreignObject></g></g><g class="edgeLabel"><g transform="translate(0, 0)" class="label"><foreignObject height="0" width="0"><div style="display: inline-block; white-space: nowrap;" xmlns="http://www.w3.org/1999/xhtml"><span class="edgeLabel"></span></div></foreignObject></g></g><g class="edgeLabel"><g transform="translate(0, 0)" class="label"><foreignObject height="0" width="0"><div style="display: inline-block; white-space: nowrap;" xmlns="http://www.w3.org/1999/xhtml"><span class="edgeLabel"></span></div></foreignObject></g></g><g class="edgeLabel"><g transform="translate(0, 0)" class="label"><foreignObject height="0" width="0"><div style="display: inline-block; white-space: nowrap;" xmlns="http://www.w3.org/1999/xhtml"><span class="edgeLabel"></span></div></foreignObject></g></g><g class="edgeLabel"><g transform="translate(0, 0)" class="label"><foreignObject height="0" width="0"><div style="display: inline-block; white-space: nowrap;" xmlns="http://www.w3.org/1999/xhtml"><span class="edgeLabel"></span></div></foreignObject></g></g><g class="edgeLabel"><g transform="translate(0, 0)" class="label"><foreignObject height="0" width="0"><div style="display: inline-block; white-space: nowrap;" xmlns="http://www.w3.org/1999/xhtml"><span class="edgeLabel"></span></div></foreignObject></g></g><g class="edgeLabel"><g transform="translate(0, 0)" class="label"><foreignObject height="0" width="0"><div style="display: inline-block; white-space: nowrap;" xmlns="http://www.w3.org/1999/xhtml"><span class="edgeLabel"></span></div></foreignObject></g></g><g class="edgeLabel"><g transform="translate(0, 0)" class="label"><foreignObject height="0" width="0"><div style="display: inline-block; white-space: nowrap;" xmlns="http://www.w3.org/1999/xhtml"><span class="edgeLabel"></span></div></foreignObject></g></g><g class="edgeLabel"><g transform="translate(0, 0)" class="label"><foreignObject height="0" width="0"><div style="display: inline-block; white-space: nowrap;" xmlns="http://www.w3.org/1999/xhtml"><span class="edgeLabel"></span></div></foreignObject></g></g><g class="edgeLabel"><g transform="translate(0, 0)" class="label"><foreignObject height="0" width="0"><div style="display: inline-block; white-space: nowrap;" xmlns="http://www.w3.org/1999/xhtml"><span class="edgeLabel"></span></div></foreignObject></g></g><g class="edgeLabel"><g transform="translate(0, 0)" class="label"><foreignObject height="0" width="0"><div style="display: inline-block; white-space: nowrap;" xmlns="http://www.w3.org/1999/xhtml"><span class="edgeLabel"></span></div></foreignObject></g></g><g class="edgeLabel"><g transform="translate(0, 0)" class="label"><foreignObject height="0" width="0"><div style="display: inline-block; white-space: nowrap;" xmlns="http://www.w3.org/1999/xhtml"><span class="edgeLabel"></span></div></foreignObject></g></g><g class="edgeLabel"><g transform="translate(0, 0)" class="label"><foreignObject height="0" width="0"><div style="display: inline-block; white-space: nowrap;" xmlns="http://www.w3.org/1999/xhtml"><span class="edgeLabel"></span></div></foreignObject></g></g><g class="edgeLabel"><g transform="translate(0, 0)" class="label"><foreignObject height="0" width="0"><div style="display: inline-block; white-space: nowrap;" xmlns="http://www.w3.org/1999/xhtml"><span class="edgeLabel"></span></div></foreignObject></g></g><g class="edgeLabel"><g transform="translate(0, 0)" class="label"><foreignObject height="0" width="0"><div style="display: inline-block; white-space: nowrap;" xmlns="http://www.w3.org/1999/xhtml"><span class="edgeLabel"></span></div></foreignObject></g></g><g class="edgeLabel"><g transform="translate(0, 0)" class="label"><foreignObject height="0" width="0"><div style="display: inline-block; white-space: nowrap;" xmlns="http://www.w3.org/1999/xhtml"><span class="edgeLabel"></span></div></foreignObject></g></g><g class="edgeLabel"><g transform="translate(0, 0)" class="label"><foreignObject height="0" width="0"><div style="display: inline-block; white-space: nowrap;" xmlns="http://www.w3.org/1999/xhtml"><span class="edgeLabel"></span></div></foreignObject></g></g><g class="edgeLabel"><g transform="translate(0, 0)" class="label"><foreignObject height="0" width="0"><div style="display: inline-block; white-space: nowrap;" xmlns="http://www.w3.org/1999/xhtml"><span class="edgeLabel"></span></div></foreignObject></g></g><g class="edgeLabel"><g transform="translate(0, 0)" class="label"><foreignObject height="0" width="0"><div style="display: inline-block; white-space: nowrap;" xmlns="http://www.w3.org/1999/xhtml"><span class="edgeLabel"></span></div></foreignObject></g></g></g><g class="nodes"><g transform="translate(110.2890625, 967.5)" data-id="DASH" data-node="true" id="flowchart-DASH-17" class="node default ui flowchart-label"><rect height="33.5" width="102.6875" y="-16.75" x="-51.34375" ry="0" rx="0" style="" class="basic label-container"/><g transform="translate(-43.84375, -9.25)" style="" class="label"><rect/><foreignObject height="18.5" width="87.6875"><div style="display: inline-block; white-space: nowrap;" xmlns="http://www.w3.org/1999/xhtml"><span class="nodeLabel">/ Dashboard</span></div></foreignObject></g></g><g transform="translate(326.06640625, 967.5)" data-id="RES" data-node="true" id="flowchart-RES-18" class="node default ui flowchart-label"><rect height="52" width="138.34375" y="-26" x="-69.171875" ry="0" rx="0" style="" class="basic label-container"/><g transform="translate(-61.671875, -18.5)" style="" class="label"><rect/><foreignObject height="37" width="123.34375"><div style="display: inline-block; white-space: nowrap;" xmlns="http://www.w3.org/1999/xhtml"><span class="nodeLabel">/resolution<br />(reviewer queue)</span></div></foreignObject></g></g><g transform="translate(891.439453125, 967.5)" data-id="ENT" data-node="true" id="flowchart-ENT-19" class="node default ui flowchart-label"><rect height="33.5" width="203.2578125" y="-16.75" x="-101.62890625" ry="0" rx="0" style="" class="basic label-container"/><g transform="translate(-94.12890625, -9.25)" style="" class="label"><rect/><foreignObject height="18.5" width="188.2578125"><div style="display: inline-block; white-space: nowrap;" xmlns="http://www.w3.org/1999/xhtml"><span class="nodeLabel">/entities · /entity/&lt;UBID&gt;</span></div></foreignObject></g></g><g transform="translate(1409.302734375, 967.5)" data-id="INS" data-node="true" id="flowchart-INS-20" class="node default ui flowchart-label"><rect height="52" width="115.90625" y="-26" x="-57.953125" ry="0" rx="0" style="" class="basic label-container"/><g transform="translate(-50.453125, -18.5)" style="" class="label"><rect/><foreignObject height="37" width="100.90625"><div style="display: inline-block; white-space: nowrap;" xmlns="http://www.w3.org/1999/xhtml"><span class="nodeLabel">/insights<br />(Smart Query)</span></div></foreignObject></g></g><g transform="translate(316.06640625, 806.25)" data-id="AI_LINK" data-node="true" id="flowchart-AI_LINK-13" class="node default ai flowchart-label"><rect height="52" width="160.9765625" y="-26" x="-80.48828125" ry="0" rx="0" style="" class="basic label-container"/><g transform="translate(-72.98828125, -18.5)" style="" class="label"><rect/><foreignObject height="37" width="145.9765625"><div style="display: inline-block; white-space: nowrap;" xmlns="http://www.w3.org/1999/xhtml"><span class="nodeLabel">AI Linkage Rationale<br />(per pair)</span></div></foreignObject></g></g><g transform="translate(523.58984375, 806.25)" data-id="AI_LIFE" data-node="true" id="flowchart-AI_LIFE-14" class="node default ai flowchart-label"><rect height="52" width="154.0703125" y="-26" x="-77.03515625" ry="0" rx="0" style="" class="basic label-container"/><g transform="translate(-69.53515625, -18.5)" style="" class="label"><rect/><foreignObject height="37" width="139.0703125"><div style="display: inline-block; white-space: nowrap;" xmlns="http://www.w3.org/1999/xhtml"><span class="nodeLabel">AI Lifecycle Verdict<br />(per UBID)</span></div></foreignObject></g></g><g transform="translate(745.94140625, 806.25)" data-id="AI_QUERY" data-node="true" id="flowchart-AI_QUERY-15" class="node default ai flowchart-label"><rect height="52" width="190.6328125" y="-26" x="-95.31640625" ry="0" rx="0" style="" class="basic label-container"/><g transform="translate(-87.81640625, -18.5)" style="" class="label"><rect/><foreignObject height="37" width="175.6328125"><div style="display: inline-block; white-space: nowrap;" xmlns="http://www.w3.org/1999/xhtml"><span class="nodeLabel">AI Query Summary<br />(per Smart Query result)</span></div></foreignObject></g></g><g transform="translate(110.2890625, 806.25)" data-id="AI_BRIEF" data-node="true" id="flowchart-AI_BRIEF-16" class="node default ai flowchart-label"><rect height="52" width="150.578125" y="-26" x="-75.2890625" ry="0" rx="0" style="" class="basic label-container"/><g transform="translate(-67.7890625, -18.5)" style="" class="label"><rect/><foreignObject height="37" width="135.578125"><div style="display: inline-block; white-space: nowrap;" xmlns="http://www.w3.org/1999/xhtml"><span class="nodeLabel">AI Morning Briefing<br />(dashboard)</span></div></foreignObject></g></g><g transform="translate(1032.572265625, 660.75)" data-id="UBID" data-node="true" id="flowchart-UBID-11" class="node default storage flowchart-label"><rect height="70.5" width="189.3515625" y="-35.25" x="-94.67578125" ry="0" rx="0" style="" class="basic label-container"/><g transform="translate(-87.17578125, -27.75)" style="" class="label"><rect/><foreignObject height="55.5" width="174.3515625"><div style="display: inline-block; white-space: nowrap;" xmlns="http://www.w3.org/1999/xhtml"><span class="nodeLabel">UBID<br />(685 unified entities,<br />anchored to PAN/GSTIN)</span></div></foreignObject></g></g><g transform="translate(1048.634765625, 806.25)" data-id="AUDIT" data-node="true" id="flowchart-AUDIT-12" class="node default storage flowchart-label"><rect height="70.5" width="213.6015625" y="-35.25" x="-106.80078125" ry="0" rx="0" style="" class="basic label-container"/><g transform="translate(-99.30078125, -27.75)" style="" class="label"><rect/><foreignObject height="55.5" width="198.6015625"><div style="display: inline-block; white-space: nowrap;" xmlns="http://www.w3.org/1999/xhtml"><span class="nodeLabel">Reviewer Audit Trail<br />(confirm / reject decisions,<br />fully reversible)</span></div></foreignObject></g></g><g transform="translate(1507.751953125, 230.75)" data-id="EVENTS" data-node="true" id="flowchart-EVENTS-8" class="node default lifecycle flowchart-label"><rect height="70.5" width="261.0703125" y="-35.25" x="-130.53515625" ry="0" rx="0" style="" class="basic label-container"/><g transform="translate(-123.03515625, -27.75)" style="" class="label"><rect/><foreignObject height="55.5" width="246.0703125"><div style="display: inline-block; white-space: nowrap;" xmlns="http://www.w3.org/1999/xhtml"><span class="nodeLabel">Event Stream<br />(2,723 events: filing, inspection,<br />renewal, payment, audit, closure)</span></div></foreignObject></g></g><g transform="translate(1507.751953125, 351.25)" data-id="RULES" data-node="true" id="flowchart-RULES-9" class="node default lifecycle flowchart-label"><rect height="70.5" width="260.25" y="-35.25" x="-130.125" ry="0" rx="0" style="" class="basic label-container"/><g transform="translate(-122.625, -27.75)" style="" class="label"><rect/><foreignObject height="55.5" width="245.25"><div style="display: inline-block; white-space: nowrap;" xmlns="http://www.w3.org/1999/xhtml"><span class="nodeLabel">Rule Engine<br />Active / Dormant / Closed<br />(12-month / 24-month thresholds)</span></div></foreignObject></g></g><g transform="translate(1507.751953125, 481)" data-id="CONFLICT" data-node="true" id="flowchart-CONFLICT-10" class="node default lifecycle flowchart-label"><rect height="52" width="234.7734375" y="-26" x="-117.38671875" ry="0" rx="0" style="" class="basic label-container"/><g transform="translate(-109.88671875, -18.5)" style="" class="label"><rect/><foreignObject height="37" width="219.7734375"><div style="display: inline-block; white-space: nowrap;" xmlns="http://www.w3.org/1999/xhtml"><span class="nodeLabel">Cross-Source Conflict Detector<br />(GST=Active vs MCA=Closed)</span></div></foreignObject></g></g><g transform="translate(981.095703125, 230.75)" data-id="BLOCK" data-node="true" id="flowchart-BLOCK-4" class="node default resolve flowchart-label"><rect height="52" width="209.4921875" y="-26" x="-104.74609375" ry="0" rx="0" style="" class="basic label-container"/><g transform="translate(-97.24609375, -18.5)" style="" class="label"><rect/><foreignObject height="37" width="194.4921875"><div style="display: inline-block; white-space: nowrap;" xmlns="http://www.w3.org/1999/xhtml"><span class="nodeLabel">Block by pincode<br />(reduces O(N²) candidates)</span></div></foreignObject></g></g><g transform="translate(858.279296875, 351.25)" data-id="DETERM" data-node="true" id="flowchart-DETERM-5" class="node default resolve flowchart-label"><rect height="70.5" width="213.421875" y="-35.25" x="-106.7109375" ry="0" rx="0" style="" class="basic label-container"/><g transform="translate(-99.2109375, -27.75)" style="" class="label"><rect/><foreignObject height="55.5" width="198.421875"><div style="display: inline-block; white-space: nowrap;" xmlns="http://www.w3.org/1999/xhtml"><span class="nodeLabel">Deterministic Match<br />PAN / GSTIN / Udyam exact<br />(score = 1.0)</span></div></foreignObject></g></g><g transform="translate(1129.646484375, 351.25)" data-id="PROB" data-node="true" id="flowchart-PROB-6" class="node default resolve flowchart-label"><rect height="70.5" width="177.84375" y="-35.25" x="-88.921875" ry="0" rx="0" style="" class="basic label-container"/><g transform="translate(-81.421875, -27.75)" style="" class="label"><rect/><foreignObject height="55.5" width="162.84375"><div style="display: inline-block; white-space: nowrap;" xmlns="http://www.w3.org/1999/xhtml"><span class="nodeLabel">Probabilistic Match<br />rapidfuzz Jaro-Winkler<br />+ token-sort</span></div></foreignObject></g></g><g transform="translate(981.095703125, 481)" data-id="TIER" data-node="true" id="flowchart-TIER-7" class="node default resolve flowchart-label"><rect height="89" width="191.46875" y="-44.5" x="-95.734375" ry="0" rx="0" style="" class="basic label-container"/><g transform="translate(-88.234375, -37)" style="" class="label"><rect/><foreignObject height="74" width="176.46875"><div style="display: inline-block; white-space: nowrap;" xmlns="http://www.w3.org/1999/xhtml"><span class="nodeLabel">3-Tier Confidence<br />HIGH ≥ 0.9 (auto-link)<br />MEDIUM 0.7–0.9 (review)<br />LOW &lt; 0.7 (separate)</span></div></foreignObject></g></g><g transform="translate(741.388671875, 51)" data-id="GST" data-node="true" id="flowchart-GST-0" class="node default source flowchart-label"><rect height="52" width="109.8046875" y="-26" x="-54.90234375" ry="0" rx="0" style="" class="basic label-container"/><g transform="translate(-47.40234375, -18.5)" style="" class="label"><rect/><foreignObject height="37" width="94.8046875"><div style="display: inline-block; white-space: nowrap;" xmlns="http://www.w3.org/1999/xhtml"><span class="nodeLabel">GST<br />(440 records)</span></div></foreignObject></g></g><g transform="translate(901.193359375, 51)" data-id="MCA" data-node="true" id="flowchart-MCA-1" class="node default source flowchart-label"><rect height="52" width="109.8046875" y="-26" x="-54.90234375" ry="0" rx="0" style="" class="basic label-container"/><g transform="translate(-47.40234375, -18.5)" style="" class="label"><rect/><foreignObject height="37" width="94.8046875"><div style="display: inline-block; white-space: nowrap;" xmlns="http://www.w3.org/1999/xhtml"><span class="nodeLabel">MCA<br />(351 records)</span></div></foreignObject></g></g><g transform="translate(1060.998046875, 51)" data-id="UDYAM" data-node="true" id="flowchart-UDYAM-2" class="node default source flowchart-label"><rect height="52" width="109.8046875" y="-26" x="-54.90234375" ry="0" rx="0" style="" class="basic label-container"/><g transform="translate(-47.40234375, -18.5)" style="" class="label"><rect/><foreignObject height="37" width="94.8046875"><div style="display: inline-block; white-space: nowrap;" xmlns="http://www.w3.org/1999/xhtml"><span class="nodeLabel">Udyam<br />(440 records)</span></div></foreignObject></g></g><g transform="translate(1302.216796875, 51)" data-id="OTHERS" data-node="true" id="flowchart-OTHERS-3" class="node default source flowchart-label"><rect height="52" width="272.6328125" y="-26" x="-136.31640625" ry="0" rx="0" style="" class="basic label-container"/><g transform="translate(-128.81640625, -18.5)" style="" class="label"><rect/><foreignObject height="37" width="257.6328125"><div style="display: inline-block; white-space: nowrap;" xmlns="http://www.w3.org/1999/xhtml"><span class="nodeLabel">...Shop · Factories · Labour ·<br />KSPCB · ESCOMs · Fire · Food Safety</span></div></foreignObject></g></g></g></g></g><text class="flowchartTitleText" y="-25" x="836.6435546875">Theme 1 — UBID Platform Architecture</text></svg>